<svg id="Layer_1" data-name="Layer 1" xmlns="http://www.w3.org/2000/svg" viewBox="0 0 98.63 23.72"><defs><style>.cls-1{fill:#009e65;}.cls-2{fill:#fff;}.cls-3{fill:none;stroke:#fff;stroke-linecap:round;stroke-linejoin:round;stroke-width:0.75px;}</style></defs><title>bg_timer</title><polygon class="cls-1" points="98.63 0 91.63 0 0 0 0 23.72 91.63 23.72 98.63 23.72 93.8 11.86 98.63 0"/><g id="Layer0_26_MEMBER_0_MEMBER_1_FILL" data-name="Layer0 26 MEMBER 0 MEMBER 1 FILL"><path class="cls-2" d="M23.53,19.67v-1H13.66v1h9.88m-.59-3a12.56,12.56,0,0,0-4.37-2.34,16.1,16.1,0,0,0-4.22,2.15,7.55,7.55,0,0,0,0,1.33h8.63V16.62m-3.59-5.82v0A4.94,4.94,0,0,0,22.21,9a4.65,4.65,0,0,0,.7-2,8.43,8.43,0,0,0-4.45,1.76A6.84,6.84,0,0,0,14.4,7.1,4,4,0,0,0,15.06,9a4.94,4.94,0,0,0,2.85,1.76q.55.08.66.82a.84.84,0,0,1,.78-.78m4.18-6.36V3.39h-9.8V4.44Z"/></g><path id="Layer0_26_MEMBER_0_MEMBER_1_1_STROKES" data-name="Layer0 26 MEMBER 0 MEMBER 1 1 STROKES" class="cls-3" d="M13.81,4.95q-.31,5,4,6.09.51.55,0,.9-4.29,1.21-4,6.17h9.6q.35-5-4-6.17-.47-.35,0-.9,4.33-1.13,4-6.09Zm4.76,6.91V14"/></svg>